<?xml version="1.0" encoding="UTF-8"?> <!-- Generator: Adobe Illustrator 24.1.2, SVG Export Plug-In . SVG Version: 6.00 Build 0) --> <svg xmlns="http://www.w3.org/2000/svg" xmlns:xlink="http://www.w3.org/1999/xlink" version="1.1" id="Layer_1" x="0px" y="0px" viewBox="0 0 412.4 125.3" style="enable-background:new 0 0 412.4 125.3;" xml:space="preserve"> <g> <path d="M19.6,88v-2.3L29.7,84V2.8H11.5L3.2,24.5H0V0h71.6v24.5h-3.3L60.1,2.8H41.8V84l10.1,1.6V88H19.6z"></path> <path d="M82.1,85.4C77.7,83,74.3,79.5,71.8,75c-2.5-4.5-3.8-9.7-3.8-15.5c0-5.8,1.3-10.9,3.8-15.4c2.5-4.5,6-7.9,10.3-10.4 c4.3-2.5,9.1-3.7,14.4-3.7c5.3,0,10.1,1.2,14.4,3.7c4.3,2.5,7.8,5.9,10.3,10.4c2.5,4.5,3.8,9.6,3.8,15.4c0,5.8-1.3,10.9-3.8,15.5 c-2.5,4.5-6,8-10.3,10.5c-4.3,2.5-9.1,3.7-14.4,3.7C91.2,89.1,86.4,87.9,82.1,85.4z M108.7,80.7c2.8-4,4.1-9.2,4.1-15.7V54 c0-6.5-1.4-11.8-4.1-15.7c-2.8-3.9-6.8-5.9-12.3-5.9c-5.4,0-9.5,2-12.3,5.9c-2.8,3.9-4.1,9.1-4.1,15.7v11c0,6.5,1.4,11.8,4.1,15.7 c2.8,4,6.8,5.9,12.3,5.9C101.9,86.7,106,84.7,108.7,80.7z"></path> <path d="M132,116.9l7.7-1.1V34.4l-7.7-1.1v-2.2h18.7v11.6c1.8-4,4.3-7.1,7.4-9.3c3.1-2.2,6.8-3.4,11.2-3.4c5.2,0,9.8,1.2,13.8,3.7 c4,2.5,7,5.9,9.2,10.3c2.2,4.4,3.3,9.6,3.3,15.6s-1.1,11.1-3.3,15.6c-2.2,4.4-5.3,7.9-9.2,10.3c-4,2.4-8.5,3.6-13.8,3.6 c-4.3,0-8-1.1-11.2-3.4c-3.1-2.2-5.6-5.3-7.4-9.2v39.3l10.3,1.1v2.2h-29V116.9z M183.5,65.1v-11c0-14.2-5.1-21.3-15.3-21.3 c-3.2,0-6.2,0.9-8.8,2.8c-2.6,1.9-4.7,4.4-6.3,7.5c-1.5,3.2-2.3,6.6-2.4,10.2v11.8c0,3.7,0.8,7.2,2.3,10.5c1.5,3.3,3.6,5.9,6.3,7.8 c2.7,1.9,5.7,2.9,9,2.9C178.4,86.4,183.5,79.3,183.5,65.1z"></path> <path d="M211.6,85.2c-4-2.6-6.1-5.9-6.1-10c0-2.1,0.6-3.8,1.7-5s2.7-1.8,4.6-1.8c1.5,0,2.7,0.4,3.7,1.1c1,0.7,1.8,1.8,2.2,3.1 c-1.6,1.8-2.4,3.6-2.4,5.6c0,2.3,1,4.3,3.1,5.9c2.1,1.7,4.8,2.5,8.2,2.5c4.6,0,8.4-1,11.3-3.1c2.9-2.1,4.4-4.9,4.4-8.4 c0-2.1-0.6-3.6-1.9-4.6c-1.2-1-3.7-2.2-7.3-3.5l-16.6-6.1c-6.5-2.3-9.8-6.7-9.8-13.1c0-5.2,1.8-9.5,5.4-12.8c3.6-3.3,8.5-5,14.8-5 c5.2,0,9.7,1.2,13.4,3.6c3.7,2.4,5.6,5.8,5.6,10.2c0,1.8-0.5,3.2-1.4,4.2c-1,1.1-2.2,1.6-3.7,1.6s-2.8-0.4-3.8-1.3 c-1-0.8-1.5-2-1.5-3.5c1-0.7,1.6-1.5,2-2.4c0.4-0.8,0.5-1.9,0.5-3c0-2.1-0.9-3.7-2.7-5.1c-1.8-1.3-4.6-2-8.3-2 c-3.2,0-6,0.5-8.3,1.5c-2.3,1-4.1,2.3-5.2,3.9c-1.2,1.6-1.8,3.3-1.8,5c0,1.8,0.6,3.2,1.9,4.2c1.3,1,3.6,2.2,7.1,3.4l15.4,5.5 c3.6,1.3,6.3,3.2,8.1,5.5c1.8,2.3,2.8,5.4,2.8,9.1c0,5.4-1.7,9.8-5.1,13.3c-3.4,3.5-8.5,5.3-15.4,5.3 C220.7,89.1,215.7,87.8,211.6,85.2z"></path> <path d="M255.7,88v-2.2l7.7-1.1V34.4l-7.7-1.1v-2.2h18.7v53.6l7.7,1.1V88H255.7z M262.1,16.1c-1.5-1.4-2.2-3.2-2.2-5.2 c0-2.1,0.7-3.8,2.1-5.2c1.4-1.4,3.2-2.1,5.3-2.1c2,0,3.7,0.7,5.1,2.1c1.4,1.4,2.1,3.1,2.1,5.2c0,2.1-0.7,3.8-2.1,5.2 c-1.4,1.4-3.1,2.1-5.1,2.1C265.4,18.3,263.6,17.5,262.1,16.1z"></path> <path d="M301.7,85.4c-4-2.5-7-5.9-9.2-10.3c-2.2-4.4-3.3-9.6-3.3-15.6c0-5.9,1.1-11.1,3.3-15.6c2.2-4.4,5.3-7.9,9.2-10.3 c4-2.4,8.5-3.6,13.8-3.6c4.3,0,8,1.1,11.1,3.4c3.2,2.2,5.6,5.3,7.5,9.2V3.3l-7.7-1.1V0h18.7v84.7l7.7,1.1V88h-18.7V76.6 c-1.8,3.9-4.3,6.9-7.5,9.2c-3.2,2.2-6.9,3.4-11.1,3.4C310.3,89.1,305.7,87.9,301.7,85.4z M325.3,83.5c2.6-1.9,4.7-4.4,6.3-7.5 c1.6-3.1,2.4-6.5,2.5-10.2V53.2c-0.1-3.7-0.9-7.1-2.5-10.2c-1.6-3.1-3.7-5.6-6.3-7.5c-2.6-1.9-5.5-2.8-8.7-2.8 c-10.2,0-15.3,7.1-15.3,21.2v11c0,14.2,5.1,21.3,15.3,21.3C319.8,86.4,322.7,85.4,325.3,83.5z"></path> <path d="M374.1,85.4c-4.4-2.5-7.9-5.9-10.5-10.4c-2.6-4.5-3.8-9.6-3.8-15.5c0-5.9,1.3-11,3.8-15.5c2.5-4.4,5.9-7.9,10.2-10.3 c4.3-2.5,9.1-3.7,14.4-3.7c4.6,0,8.8,1,12.4,3.1c3.7,2.1,6.5,4.9,8.6,8.5c2.1,3.6,3.1,7.8,3.2,12.5h-40.5V65 c0,6.5,1.4,11.7,4.3,15.7c2.9,4,7.1,6,12.6,6c5.1,0,9.5-1.4,13.4-4.3c3.9-2.9,6.3-6.6,7.1-11.1h2.5c-1,5.4-3.6,9.8-7.8,13 c-4.2,3.2-9.3,4.8-15.3,4.8C383.4,89.1,378.5,87.9,374.1,85.4z M400.3,51.4c0-6.4-1-11.1-3-14.2c-2-3.1-5.1-4.7-9.2-4.7 c-4.9,0-8.7,1.7-11.4,5.2c-2.7,3.4-4.3,8-4.6,13.8H400.3z"></path> </g> <g> <path d="M181.8,125v-18.4h5.7c0.9,0,1.8,0.1,2.6,0.3c0.8,0.2,1.5,0.5,2,0.9c0.6,0.4,1,0.9,1.3,1.6c0.3,0.7,0.5,1.5,0.5,2.4 c0,1.4-0.4,2.6-1.1,3.4c-0.7,0.9-1.8,1.4-3,1.8l4.7,8h-2.6l-4.4-7.8h-3.3v7.8H181.8z M184.1,115.3h3.1c1.4,0,2.5-0.3,3.3-0.9 c0.8-0.6,1.1-1.5,1.1-2.7c0-1.2-0.4-2.1-1.1-2.5c-0.8-0.5-1.9-0.7-3.3-0.7h-3.1V115.3z"></path> <path d="M198.8,125v-18.4h10.6v2h-8.3v5.8h7v2h-7v6.7h8.5v2H198.8z"></path> <path d="M212.3,125l6.2-18.4h2.6l6.2,18.4h-2.5l-1.7-5.6h-6.7l-1.8,5.6H212.3z M217.9,114.7l-0.9,2.8h5.5l-0.9-2.8 c-0.3-1-0.7-2-1-3.1c-0.3-1-0.6-2.1-0.9-3.1h-0.1c-0.3,1.1-0.6,2.1-0.9,3.1S218.2,113.7,217.9,114.7z"></path> <path d="M231,125v-18.4h2.3V123h8v2H231z"></path> <path d="M252.5,125v-18.4h10.6v2h-8.3v5.8h7v2h-7v6.7h8.5v2H252.5z"></path> <path d="M273.5,125.3c-1.3,0-2.5-0.2-3.6-0.7c-1.1-0.5-2.1-1.1-2.9-2l1.4-1.6c0.7,0.7,1.4,1.2,2.3,1.7s1.8,0.6,2.8,0.6 c1.2,0,2.2-0.3,2.8-0.8s1-1.3,1-2.2c0-0.5-0.1-0.9-0.2-1.2c-0.2-0.3-0.4-0.6-0.6-0.8s-0.6-0.4-1-0.6c-0.4-0.2-0.8-0.4-1.2-0.6 l-2.6-1.1c-0.4-0.2-0.9-0.4-1.3-0.7c-0.4-0.3-0.8-0.6-1.2-1c-0.4-0.4-0.6-0.8-0.9-1.3c-0.2-0.5-0.3-1.1-0.3-1.8 c0-0.7,0.1-1.3,0.4-1.9c0.3-0.6,0.7-1.1,1.2-1.6c0.5-0.4,1.1-0.8,1.8-1c0.7-0.2,1.5-0.4,2.3-0.4c1.1,0,2.1,0.2,3.1,0.6 c0.9,0.4,1.7,1,2.4,1.6l-1.3,1.5c-0.6-0.5-1.2-1-1.9-1.3c-0.7-0.3-1.5-0.5-2.3-0.5c-1,0-1.9,0.2-2.5,0.7c-0.6,0.5-0.9,1.1-0.9,2 c0,0.4,0.1,0.8,0.3,1.1c0.2,0.3,0.4,0.6,0.7,0.8s0.6,0.4,1,0.6c0.4,0.2,0.7,0.3,1.1,0.5l2.6,1.1c0.5,0.2,1,0.5,1.5,0.8 s0.9,0.6,1.2,1s0.6,0.8,0.8,1.3c0.2,0.5,0.3,1.1,0.3,1.8c0,0.7-0.1,1.4-0.4,2c-0.3,0.6-0.7,1.2-1.2,1.7c-0.5,0.5-1.2,0.8-2,1.1 S274.4,125.3,273.5,125.3z"></path> <path d="M287.7,125v-16.4h-5.5v-2h13.4v2H290V125H287.7z"></path> <path d="M296.5,125l6.2-18.4h2.6l6.2,18.4H309l-1.7-5.6h-6.7l-1.8,5.6H296.5z M302.1,114.7l-0.9,2.8h5.5l-0.9-2.8 c-0.3-1-0.7-2-1-3.1s-0.6-2.1-0.9-3.1h-0.1c-0.3,1.1-0.6,2.1-0.9,3.1C302.7,112.7,302.4,113.7,302.1,114.7z"></path> <path d="M317.5,125v-16.4H312v-2h13.4v2h-5.5V125H317.5z"></path> <path d="M329.8,125v-18.4h10.6v2h-8.3v5.8h7v2h-7v6.7h8.5v2H329.8z"></path> </g> </svg> 